<svg xmlns="http://www.w3.org/2000/svg" width="200" height="200" viewBox="0 0 200 200" fill="transparent">
<path d="M 180.00,12.00 L 166.00,9.00 L 153.00,15.00 L 147.00,25.00 L 148.00,42.00 L 100.00,90.00 L 84.00,89.00 L 73.00,95.00 L 69.00,101.00 L 67.00,113.00 L 70.00,122.00 L 77.00,129.00 L 84.00,132.00 L 94.00,132.00 L 104.00,127.00 L 111.00,114.00 L 109.00,100.00 L 158.00,51.00 L 172.00,53.00 L 185.00,46.00 L 190.00,36.00 L 190.00,26.00 L 187.00,19.00 Z" fill="#424143" fill-rule="evenodd"/>
<path d="M 129.00,178.00 L 106.00,140.00 L 94.00,144.00 L 84.00,144.00 L 77.00,142.00 L 61.00,179.00 L 60.00,185.00 L 63.00,187.00 L 75.00,190.00 L 96.00,191.00 L 115.00,187.00 L 128.00,181.00 Z" fill="#95d60c" fill-rule="evenodd"/>
<path d="M 123.00,111.00 L 120.00,124.00 L 115.00,131.00 L 114.00,135.00 L 145.00,166.00 L 147.00,166.00 L 155.00,157.00 L 163.00,143.00 L 169.00,122.00 L 169.00,111.00 Z" fill="#6da33a" fill-rule="evenodd"/>
<path d="M 31.00,55.00 L 23.00,64.00 L 16.00,76.00 L 11.00,90.00 L 10.00,100.00 L 9.00,101.00 L 9.00,110.00 L 55.00,110.00 L 57.00,99.00 L 64.00,88.00 L 64.00,86.00 L 33.00,55.00 Z" fill="#4d5a2f" fill-rule="evenodd"/>
<path d="M 88.00,30.00 L 82.00,30.00 L 81.00,31.00 L 75.00,31.00 L 74.00,32.00 L 66.00,33.00 L 60.00,36.00 L 58.00,36.00 L 49.00,41.00 L 50.00,45.00 L 52.00,47.00 L 53.00,50.00 L 55.00,52.00 L 56.00,55.00 L 58.00,57.00 L 59.00,60.00 L 61.00,62.00 L 62.00,65.00 L 64.00,67.00 L 72.00,81.00 L 74.00,81.00 L 83.00,77.00 L 88.00,77.00 Z" fill="#6da33a" fill-rule="evenodd"/>
<path d="M 93.00,30.00 L 93.00,77.00 L 100.00,78.00 L 133.00,45.00 L 133.00,43.00 L 120.00,36.00 L 118.00,36.00 L 108.00,32.00 L 96.00,31.00 L 95.00,30.00 Z" fill="#4d5a2f" fill-rule="evenodd"/>
<path d="M 157.00,67.00 L 154.00,67.00 L 122.00,99.00 L 122.00,106.00 L 169.00,106.00 L 169.00,100.00 L 168.00,99.00 L 168.00,94.00 L 167.00,93.00 L 166.00,86.00 L 164.00,83.00 L 163.00,78.00 Z" fill="#4d5a2f" fill-rule="evenodd"/>
<path d="M 9.00,114.00 L 9.00,122.00 L 10.00,123.00 L 10.00,127.00 L 11.00,128.00 L 12.00,135.00 L 15.00,141.00 L 15.00,143.00 L 18.00,148.00 L 20.00,148.00 L 22.00,146.00 L 25.00,145.00 L 27.00,143.00 L 30.00,142.00 L 32.00,140.00 L 50.00,130.00 L 55.00,126.00 L 58.00,125.00 L 58.00,122.00 L 56.00,118.00 L 56.00,114.00 Z" fill="#95d60c" fill-rule="evenodd"/>
<path d="M 70.00,138.00 L 67.00,138.00 L 36.00,169.00 L 36.00,171.00 L 38.00,173.00 L 39.00,173.00 L 42.00,176.00 L 43.00,176.00 L 45.00,178.00 L 52.00,182.00 L 55.00,182.00 L 56.00,181.00 L 56.00,179.00 L 59.00,174.00 L 59.00,172.00 L 61.00,169.00 L 61.00,167.00 L 63.00,164.00 L 63.00,162.00 L 66.00,157.00 L 66.00,155.00 L 68.00,152.00 L 68.00,150.00 L 72.00,142.00 L 72.00,139.00 Z" fill="#4d5a2f" fill-rule="evenodd"/>
<path d="M 61.00,129.00 L 57.00,130.00 L 55.00,132.00 L 52.00,133.00 L 50.00,135.00 L 42.00,139.00 L 37.00,143.00 L 34.00,144.00 L 32.00,146.00 L 29.00,147.00 L 27.00,149.00 L 21.00,152.00 L 21.00,154.00 L 23.00,156.00 L 23.00,157.00 L 31.00,166.00 L 33.00,166.00 L 64.00,135.00 L 64.00,132.00 Z" fill="#6da33a" fill-rule="evenodd"/>
<path d="M 43.00,44.00 L 36.00,50.00 L 36.00,52.00 L 62.00,78.00 L 64.00,78.00 L 63.00,74.00 L 61.00,72.00 L 60.00,69.00 L 58.00,67.00 L 57.00,64.00 L 55.00,62.00 L 54.00,59.00 L 52.00,57.00 L 51.00,54.00 L 49.00,52.00 L 45.00,44.00 Z" fill="#95d60c" fill-rule="evenodd"/>
<path d="M 114.00,143.00 L 114.00,145.00 L 118.00,150.00 L 119.00,153.00 L 121.00,155.00 L 122.00,158.00 L 124.00,160.00 L 125.00,163.00 L 127.00,165.00 L 128.00,168.00 L 130.00,170.00 L 133.00,176.00 L 136.00,176.00 L 139.00,173.00 L 140.00,173.00 L 142.00,171.00 L 142.00,169.00 L 116.00,143.00 Z" fill="#4d5a2f" fill-rule="evenodd"/>
</svg>